<svg width="576" height="78" viewBox="0 0 576 78" fill="none" xmlns="http://www.w3.org/2000/svg">
<g clip-path="url(#clip0_306_15)">
<path d="M48.4152 2.74219C47.6054 1.06641 45.8943 0 44.0152 0C42.136 0 40.4402 1.06641 39.6152 2.74219L29.7915 22.8973L7.85266 26.127C6.01932 26.4012 4.49154 27.6809 3.92627 29.4328C3.36099 31.1848 3.81932 33.1195 5.13321 34.4145L21.0527 50.1211L17.2943 72.3176C16.9888 74.1457 17.7527 76.0043 19.2652 77.0859C20.7777 78.1676 22.779 78.3047 24.429 77.4363L44.0304 67.0008L63.6318 77.4363C65.2818 78.3047 67.2832 78.1828 68.7957 77.0859C70.3082 75.9891 71.0721 74.1457 70.7665 72.3176L66.9929 50.1211L82.9124 34.4145C84.2263 33.1195 84.6999 31.1848 84.1193 29.4328C83.5388 27.6809 82.0263 26.4012 80.1929 26.127L58.2388 22.8973L48.4152 2.74219Z" fill="#CDD200"/>
</g>
<g clip-path="url(#clip1_306_15)">
<path d="M170.415 2.74219C169.605 1.06641 167.894 0 166.015 0C164.136 0 162.44 1.06641 161.615 2.74219L151.792 22.8973L129.853 26.127C128.019 26.4012 126.492 27.6809 125.926 29.4328C125.361 31.1848 125.819 33.1195 127.133 34.4145L143.053 50.1211L139.294 72.3176C138.989 74.1457 139.753 76.0043 141.265 77.0859C142.778 78.1676 144.779 78.3047 146.429 77.4363L166.03 67.0008L185.632 77.4363C187.282 78.3047 189.283 78.1828 190.796 77.0859C192.308 75.9891 193.072 74.1457 192.767 72.3176L188.993 50.1211L204.912 34.4145C206.226 33.1195 206.7 31.1848 206.119 29.4328C205.539 27.6809 204.026 26.4012 202.193 26.127L180.239 22.8973L170.415 2.74219Z" fill="#CDD200"/>
</g>
<g clip-path="url(#clip2_306_15)">
<path d="M292.415 2.74219C291.605 1.06641 289.894 0 288.015 0C286.136 0 284.44 1.06641 283.615 2.74219L273.792 22.8973L251.853 26.127C250.019 26.4012 248.492 27.6809 247.926 29.4328C247.361 31.1848 247.819 33.1195 249.133 34.4145L265.053 50.1211L261.294 72.3176C260.989 74.1457 261.753 76.0043 263.265 77.0859C264.778 78.1676 266.779 78.3047 268.429 77.4363L288.03 67.0008L307.632 77.4363C309.282 78.3047 311.283 78.1828 312.796 77.0859C314.308 75.9891 315.072 74.1457 314.767 72.3176L310.993 50.1211L326.912 34.4145C328.226 33.1195 328.7 31.1848 328.119 29.4328C327.539 27.6809 326.026 26.4012 324.193 26.127L302.239 22.8973L292.415 2.74219Z" fill="#CDD200"/>
</g>
<g clip-path="url(#clip3_306_15)">
<path d="M414.415 2.74219C413.605 1.06641 411.894 0 410.015 0C408.136 0 406.44 1.06641 405.615 2.74219L395.792 22.8973L373.853 26.127C372.019 26.4012 370.492 27.6809 369.926 29.4328C369.361 31.1848 369.819 33.1195 371.133 34.4145L387.053 50.1211L383.294 72.3176C382.989 74.1457 383.753 76.0043 385.265 77.0859C386.778 78.1676 388.779 78.3047 390.429 77.4363L410.03 67.0008L429.632 77.4363C431.282 78.3047 433.283 78.1828 434.796 77.0859C436.308 75.9891 437.072 74.1457 436.767 72.3176L432.993 50.1211L448.912 34.4145C450.226 33.1195 450.7 31.1848 450.119 29.4328C449.539 27.6809 448.026 26.4012 446.193 26.127L424.239 22.8973L414.415 2.74219Z" fill="#CDD200"/>
</g>
<g clip-path="url(#clip4_306_15)">
<path d="M536.415 2.74219C535.605 1.06641 533.894 0 532.015 0C530.136 0 528.44 1.06641 527.615 2.74219L517.792 22.8973L495.853 26.127C494.019 26.4012 492.492 27.6809 491.926 29.4328C491.361 31.1848 491.819 33.1195 493.133 34.4145L509.053 50.1211L505.294 72.3176C504.989 74.1457 505.753 76.0043 507.265 77.0859C508.778 78.1676 510.779 78.3047 512.429 77.4363L532.03 67.0008L551.632 77.4363C553.282 78.3047 555.283 78.1828 556.796 77.0859C558.308 75.9891 559.072 74.1457 558.767 72.3176L554.993 50.1211L570.912 34.4145C572.226 33.1195 572.7 31.1848 572.119 29.4328C571.539 27.6809 570.026 26.4012 568.193 26.127L546.239 22.8973L536.415 2.74219Z" fill="#CDD200"/>
</g>
<defs>
<clipPath id="clip0_306_15">
<rect width="88" height="78" fill="white"/>
</clipPath>
<clipPath id="clip1_306_15">
<rect width="88" height="78" fill="white" transform="translate(122)"/>
</clipPath>
<clipPath id="clip2_306_15">
<rect width="88" height="78" fill="white" transform="translate(244)"/>
</clipPath>
<clipPath id="clip3_306_15">
<rect width="88" height="78" fill="white" transform="translate(366)"/>
</clipPath>
<clipPath id="clip4_306_15">
<rect width="88" height="78" fill="white" transform="translate(488)"/>
</clipPath>
</defs>
</svg>
