<svg width="512" height="512" viewBox="0 0 512 512" fill="none" xmlns="http://www.w3.org/2000/svg">
<g clip-path="url(#clip0_301_2)">
<path d="M345 39.1L472.8 168.4C525.2 221.4 525.2 306.6 472.8 359.6L360.8 472.9C351.5 482.3 336.3 482.4 326.9 473.1C317.5 463.8 317.4 448.6 326.7 439.2L438.6 325.9C472.5 291.6 472.5 236.5 438.6 202.2L310.9 72.9C301.6 63.5 301.7 48.3 311.1 39C320.5 29.7 335.7 29.8 345 39.2V39.1ZM0 229.5V80C0 53.5 21.5 32 48 32H197.5C214.5 32 230.8 38.7 242.8 50.7L410.8 218.7C435.8 243.7 435.8 284.2 410.8 309.2L277.3 442.7C252.3 467.7 211.8 467.7 186.8 442.7L18.8 274.7C6.7 262.7 0 246.5 0 229.5ZM144 144C144 135.513 140.629 127.374 134.627 121.373C128.626 115.371 120.487 112 112 112C103.513 112 95.3737 115.371 89.3726 121.373C83.3714 127.374 80 135.513 80 144C80 152.487 83.3714 160.626 89.3726 166.627C95.3737 172.629 103.513 176 112 176C120.487 176 128.626 172.629 134.627 166.627C140.629 160.626 144 152.487 144 144Z" fill="white"/>
</g>
<defs>
<clipPath id="clip0_301_2">
<rect width="512" height="512" fill="white"/>
</clipPath>
</defs>
</svg>
